<svg width="216" height="32" viewBox="0 0 216 32" fill="none" xmlns="http://www.w3.org/2000/svg">
<path d="M14 4.33334V27.6667M22.2496 7.75043L5.75046 24.2496M25.6667 16H2.33337M22.2496 24.2496L5.75046 7.75043" stroke="#FF5733" stroke-width="2.5" stroke-linecap="round" stroke-linejoin="round"/>
<path d="M42.8281 25.4102C41.5156 25.4102 40.276 25.1823 39.1094 24.7266C37.9609 24.2526 36.9401 23.5964 36.0469 22.7578C35.1719 21.901 34.4792 20.8893 33.9688 19.7227C33.4766 18.5378 33.2305 17.2435 33.2305 15.8398C33.2305 14.418 33.4766 13.1237 33.9688 11.957C34.4792 10.7904 35.1719 9.78776 36.0469 8.94922C36.9401 8.09245 37.9609 7.4362 39.1094 6.98047C40.276 6.50651 41.5156 6.26953 42.8281 6.26953C44.1406 6.26953 45.3711 6.50651 46.5195 6.98047C47.668 7.4362 48.6797 8.09245 49.5547 8.94922C50.4479 9.78776 51.1406 10.7904 51.6328 11.957C52.1432 13.1237 52.3984 14.418 52.3984 15.8398C52.3984 17.2435 52.1432 18.5378 51.6328 19.7227C51.1406 20.8893 50.4479 21.901 49.5547 22.7578C48.6797 23.5964 47.668 24.2526 46.5195 24.7266C45.3711 25.1823 44.1406 25.4102 42.8281 25.4102ZM42.8281 21.8008C43.9219 21.8008 44.8971 21.5456 45.7539 21.0352C46.6107 20.5065 47.2852 19.7956 47.7773 18.9023C48.2695 18.0091 48.5156 16.9883 48.5156 15.8398C48.5156 14.6914 48.2695 13.6706 47.7773 12.7773C47.2852 11.8659 46.6107 11.1549 45.7539 10.6445C44.8971 10.1159 43.9219 9.85156 42.8281 9.85156C41.7344 9.85156 40.7591 10.1159 39.9023 10.6445C39.0456 11.1549 38.362 11.8659 37.8516 12.7773C37.3594 13.6888 37.1133 14.7096 37.1133 15.8398C37.1133 16.9701 37.3594 17.9909 37.8516 18.9023C38.3438 19.7956 39.0182 20.5065 39.875 21.0352C40.75 21.5456 41.7344 21.8008 42.8281 21.8008ZM60.9308 25.4102C59.8917 25.4102 58.9256 25.2188 58.0323 24.8359C57.1573 24.4531 56.3917 23.9245 55.7355 23.25C55.0792 22.5755 54.5688 21.8008 54.2042 20.9258C53.8579 20.0508 53.6847 19.1302 53.6847 18.1641C53.6847 17.1979 53.8579 16.2773 54.2042 15.4023C54.5688 14.5273 55.0792 13.7526 55.7355 13.0781C56.3917 12.3854 57.1573 11.8385 58.0323 11.4375C58.9256 11.0365 59.8917 10.8359 60.9308 10.8359C61.9698 10.8359 62.8084 11 63.4464 11.3281C64.1027 11.6562 64.6222 11.9753 65.005 12.2852V15.4844C64.531 15.138 63.9933 14.8464 63.3917 14.6094C62.8084 14.3724 62.0883 14.2539 61.2316 14.2539C60.5389 14.2539 59.8917 14.4271 59.2902 14.7734C58.7068 15.1198 58.242 15.5846 57.8956 16.168C57.5493 16.7513 57.3761 17.4167 57.3761 18.1641C57.3761 18.9115 57.5402 19.5768 57.8683 20.1602C58.1964 20.7435 58.6521 21.2083 59.2355 21.5547C59.837 21.8828 60.5024 22.0469 61.2316 22.0469C62.0883 22.0469 62.8084 21.9284 63.3917 21.6914C63.9933 21.4544 64.531 21.1719 65.005 20.8438V24.0156C64.6222 24.3438 64.1027 24.6628 63.4464 24.9727C62.8084 25.2643 61.9698 25.4102 60.9308 25.4102ZM73.428 25.4102C72.4071 25.4102 71.4501 25.237 70.5569 24.8906C69.6636 24.526 68.8707 24.0247 68.178 23.3867C67.5035 22.7487 66.9748 21.9922 66.592 21.1172C66.2092 20.2422 66.0178 19.2852 66.0178 18.2461C66.0178 16.8971 66.3186 15.6667 66.9202 14.5547C67.5217 13.4245 68.3511 12.5221 69.4084 11.8477C70.4657 11.1732 71.6689 10.8359 73.0178 10.8359C74.3668 10.8359 75.5243 11.1276 76.4905 11.7109C77.4748 12.2943 78.2222 13.1055 78.7327 14.1445C79.2613 15.1654 79.5256 16.3503 79.5256 17.6992V19.1758H69.217V16.7969H76.1897C76.1532 16.1224 75.9709 15.5755 75.6428 15.1562C75.3147 14.7188 74.9136 14.3997 74.4397 14.1992C73.9657 13.9805 73.4644 13.8711 72.9358 13.8711C72.2248 13.8711 71.6051 14.0534 71.0764 14.418C70.566 14.7826 70.1649 15.293 69.8733 15.9492C69.5816 16.6055 69.4358 17.3711 69.4358 18.2461C69.4358 19.0299 69.609 19.7227 69.9553 20.3242C70.3017 20.9258 70.7847 21.3997 71.4045 21.7461C72.0426 22.0924 72.7626 22.2656 73.5647 22.2656C74.5855 22.2656 75.497 22.0651 76.2991 21.6641C77.1194 21.263 77.7665 20.8529 78.2405 20.4336V23.6602C77.967 23.9154 77.5842 24.1797 77.092 24.4531C76.5998 24.7266 76.0347 24.9544 75.3967 25.1367C74.7769 25.319 74.1207 25.4102 73.428 25.4102ZM86.8002 25.4102C85.7064 25.4102 84.6856 25.1276 83.7377 24.5625C82.808 23.9974 82.0515 23.1771 81.4681 22.1016C80.903 21.026 80.6205 19.7227 80.6205 18.1914C80.6205 16.6419 80.903 15.3203 81.4681 14.2266C82.0515 13.1328 82.8262 12.2943 83.7923 11.7109C84.7767 11.1276 85.8614 10.8359 87.0462 10.8359C87.8119 10.8359 88.5684 11.0091 89.3158 11.3555C90.0814 11.7018 90.7194 12.1667 91.2298 12.75V11.1914H94.7025V25H91.2298V22.6758C90.8288 23.4232 90.2455 24.0703 89.4798 24.6172C88.7142 25.1458 87.821 25.4102 86.8002 25.4102ZM87.6752 21.9375C88.2949 21.9375 88.8692 21.7734 89.3978 21.4453C89.9447 21.1172 90.3913 20.6523 90.7377 20.0508C91.084 19.4492 91.2481 18.7383 91.2298 17.918V15.9492C90.7377 15.4206 90.1999 15.0013 89.6166 14.6914C89.0515 14.3815 88.4317 14.2266 87.7572 14.2266C87.028 14.2266 86.3991 14.418 85.8705 14.8008C85.3601 15.1654 84.959 15.6484 84.6673 16.25C84.3757 16.8516 84.2298 17.4987 84.2298 18.1914C84.2298 18.8659 84.3757 19.4948 84.6673 20.0781C84.959 20.6432 85.3601 21.099 85.8705 21.4453C86.3991 21.7734 87.0007 21.9375 87.6752 21.9375ZM106.981 25L106.954 16.9883C106.954 16.0586 106.726 15.3659 106.27 14.9102C105.833 14.4544 105.222 14.2266 104.438 14.2266C103.818 14.2266 103.244 14.4271 102.715 14.8281C102.187 15.2292 101.722 15.7031 101.321 16.25V13.1602C101.612 12.7773 101.959 12.4128 102.36 12.0664C102.779 11.7018 103.253 11.4102 103.782 11.1914C104.31 10.9544 104.885 10.8359 105.504 10.8359C106.452 10.8359 107.3 11.0456 108.047 11.4648C108.795 11.8841 109.378 12.5221 109.797 13.3789C110.235 14.2174 110.454 15.2656 110.454 16.5234V25H106.981ZM97.8481 25V11.1914H101.321V25H97.8481ZM116.88 25V6.67969H120.681V25H116.88ZM113.654 25V21.7188H123.908V25H113.654ZM113.654 9.96094V6.67969H123.908V9.96094H113.654ZM136.514 25L136.487 16.9883C136.487 16.0586 136.259 15.3659 135.803 14.9102C135.366 14.4544 134.755 14.2266 133.971 14.2266C133.352 14.2266 132.777 14.4271 132.249 14.8281C131.72 15.2292 131.255 15.7031 130.854 16.25V13.1602C131.146 12.7773 131.492 12.4128 131.893 12.0664C132.313 11.7018 132.787 11.4102 133.315 11.1914C133.844 10.9544 134.418 10.8359 135.038 10.8359C135.986 10.8359 136.833 11.0456 137.581 11.4648C138.328 11.8841 138.912 12.5221 139.331 13.3789C139.768 14.2174 139.987 15.2656 139.987 16.5234V25H136.514ZM127.382 25V11.1914H130.854V25H127.382ZM146.633 25.4102C146.013 25.4102 145.402 25.3372 144.801 25.1914C144.199 25.0638 143.643 24.8906 143.133 24.6719C142.64 24.4531 142.239 24.2344 141.93 24.0156V20.9805C142.276 21.2174 142.695 21.4453 143.187 21.6641C143.68 21.8828 144.19 22.0651 144.719 22.2109C145.247 22.3385 145.73 22.4023 146.168 22.4023C146.861 22.4023 147.389 22.2747 147.754 22.0195C148.137 21.7643 148.328 21.418 148.328 20.9805C148.328 20.6341 148.173 20.3607 147.863 20.1602C147.553 19.9596 147.098 19.7591 146.496 19.5586L144.801 18.957C143.762 18.6107 143.032 18.1185 142.613 17.4805C142.212 16.8424 142.012 16.0859 142.012 15.2109C142.012 14.3359 142.23 13.5794 142.668 12.9414C143.124 12.2852 143.752 11.7747 144.555 11.4102C145.375 11.0273 146.295 10.8359 147.316 10.8359C148.173 10.8359 148.966 10.9635 149.695 11.2188C150.443 11.4557 151.008 11.7474 151.39 12.0938V15.1562C150.971 14.8646 150.443 14.582 149.805 14.3086C149.185 14.0352 148.528 13.8984 147.836 13.8984C147.18 13.8984 146.66 14.0443 146.277 14.3359C145.894 14.6276 145.703 14.974 145.703 15.375C145.703 15.6667 145.812 15.9401 146.031 16.1953C146.268 16.4323 146.687 16.6419 147.289 16.8242L148.848 17.3438C149.923 17.6536 150.716 18.1185 151.226 18.7383C151.737 19.3398 151.992 20.0872 151.992 20.9805C151.992 21.819 151.746 22.5755 151.254 23.25C150.78 23.9245 150.133 24.4531 149.312 24.8359C148.51 25.2188 147.617 25.4102 146.633 25.4102ZM156.669 8.70312C156.013 8.70312 155.448 8.46615 154.974 7.99219C154.5 7.51823 154.263 6.97135 154.263 6.35156C154.263 5.69531 154.5 5.13932 154.974 4.68359C155.448 4.22786 156.013 4 156.669 4C157.106 4 157.507 4.10938 157.872 4.32812C158.237 4.52865 158.528 4.8112 158.747 5.17578C158.966 5.52214 159.075 5.91406 159.075 6.35156C159.075 6.7526 158.966 7.13542 158.747 7.5C158.528 7.86458 158.237 8.15625 157.872 8.375C157.507 8.59375 157.106 8.70312 156.669 8.70312ZM155.274 25V11.1914H158.747V25H155.274ZM153.06 14.1445V11.1914H158.747V14.1445H153.06ZM167.471 31.9727C166.669 31.9727 165.958 31.8815 165.338 31.6992C164.736 31.5352 164.19 31.3164 163.697 31.043C163.205 30.7695 162.731 30.4779 162.275 30.168V26.8867C162.695 27.1419 163.132 27.4154 163.588 27.707C164.062 27.9987 164.6 28.2448 165.201 28.4453C165.803 28.6458 166.486 28.7461 167.252 28.7461C168.091 28.7461 168.829 28.5911 169.467 28.2812C170.123 27.9714 170.634 27.5339 170.998 26.9688C171.381 26.4219 171.572 25.793 171.572 25.082V22.6758C171.171 23.4232 170.588 24.0703 169.822 24.6172C169.057 25.1458 168.163 25.4102 167.143 25.4102C166.049 25.4102 165.028 25.1276 164.08 24.5625C163.15 23.9974 162.394 23.1771 161.811 22.1016C161.246 21.026 160.963 19.7227 160.963 18.1914C160.963 16.6419 161.246 15.3203 161.811 14.2266C162.394 13.1328 163.169 12.2943 164.135 11.7109C165.119 11.1276 166.204 10.8359 167.389 10.8359C168.154 10.8359 168.911 11.0091 169.658 11.3555C170.424 11.7018 171.062 12.1667 171.572 12.75V11.1914H175.045V24.6445C175.045 26.194 174.699 27.5156 174.006 28.6094C173.313 29.7031 172.393 30.5326 171.244 31.0977C170.096 31.681 168.838 31.9727 167.471 31.9727ZM168.018 21.9102C168.637 21.9102 169.212 21.7552 169.74 21.4453C170.287 21.1172 170.725 20.6523 171.053 20.0508C171.399 19.4492 171.572 18.7383 171.572 17.918V15.9492C171.08 15.4206 170.542 15.0104 169.959 14.7188C169.394 14.4089 168.774 14.2539 168.1 14.2539C167.371 14.2539 166.742 14.4362 166.213 14.8008C165.703 15.1654 165.302 15.6484 165.01 16.25C164.718 16.8516 164.572 17.4987 164.572 18.1914C164.572 18.8659 164.718 19.4857 165.01 20.0508C165.302 20.6159 165.703 21.0716 166.213 21.418C166.742 21.7461 167.343 21.9102 168.018 21.9102ZM187.323 25L187.296 16.9883C187.296 16.0586 187.068 15.3659 186.613 14.9102C186.175 14.4544 185.564 14.2266 184.78 14.2266C184.161 14.2266 183.586 14.4271 183.058 14.8281C182.529 15.2292 182.064 15.7031 181.663 16.25V13.1602C181.955 12.7773 182.301 12.4128 182.702 12.0664C183.122 11.7018 183.596 11.4102 184.124 11.1914C184.653 10.9544 185.227 10.8359 185.847 10.8359C186.795 10.8359 187.642 11.0456 188.39 11.4648C189.137 11.8841 189.721 12.5221 190.14 13.3789C190.577 14.2174 190.796 15.2656 190.796 16.5234V25H187.323ZM178.191 25V5.3125H181.663V25H178.191ZM199.383 25.4102C198.563 25.4102 197.815 25.2279 197.141 24.8633C196.485 24.4987 195.965 23.9883 195.582 23.332C195.2 22.6576 195.008 21.8646 195.008 20.9531V14.0898H192.711V12.3125C193.604 12.0026 194.334 11.4284 194.899 10.5898C195.482 9.7513 195.992 8.70312 196.43 7.44531H198.481V11.1914H202.637V14.0898H198.481V20.0508C198.481 20.6706 198.636 21.1628 198.946 21.5273C199.274 21.8737 199.748 22.0469 200.367 22.0469C200.914 22.0469 201.388 21.9648 201.789 21.8008C202.19 21.6367 202.546 21.4635 202.856 21.2812V24.2344C202.528 24.5807 202.063 24.8633 201.461 25.082C200.878 25.3008 200.185 25.4102 199.383 25.4102ZM209.064 25.4102C208.444 25.4102 207.833 25.3372 207.232 25.1914C206.63 25.0638 206.074 24.8906 205.564 24.6719C205.072 24.4531 204.671 24.2344 204.361 24.0156V20.9805C204.707 21.2174 205.126 21.4453 205.619 21.6641C206.111 21.8828 206.621 22.0651 207.15 22.2109C207.678 22.3385 208.162 22.4023 208.599 22.4023C209.292 22.4023 209.82 22.2747 210.185 22.0195C210.568 21.7643 210.759 21.418 210.759 20.9805C210.759 20.6341 210.604 20.3607 210.294 20.1602C209.984 19.9596 209.529 19.7591 208.927 19.5586L207.232 18.957C206.193 18.6107 205.464 18.1185 205.044 17.4805C204.643 16.8424 204.443 16.0859 204.443 15.2109C204.443 14.3359 204.662 13.5794 205.099 12.9414C205.555 12.2852 206.184 11.7747 206.986 11.4102C207.806 11.0273 208.727 10.8359 209.747 10.8359C210.604 10.8359 211.397 10.9635 212.126 11.2188C212.874 11.4557 213.439 11.7474 213.822 12.0938V15.1562C213.402 14.8646 212.874 14.582 212.236 14.3086C211.616 14.0352 210.96 13.8984 210.267 13.8984C209.611 13.8984 209.091 14.0443 208.708 14.3359C208.326 14.6276 208.134 14.974 208.134 15.375C208.134 15.6667 208.244 15.9401 208.462 16.1953C208.699 16.4323 209.119 16.6419 209.72 16.8242L211.279 17.3438C212.354 17.6536 213.147 18.1185 213.658 18.7383C214.168 19.3398 214.423 20.0872 214.423 20.9805C214.423 21.819 214.177 22.5755 213.685 23.25C213.211 23.9245 212.564 24.4531 211.744 24.8359C210.942 25.2188 210.048 25.4102 209.064 25.4102Z" fill="#FF5733"/>
</svg>
